<mxfile host="app.diagrams.net" agent="Mozilla/5.0 (Macintosh; Intel Mac OS X 10_15_7) AppleWebKit/537.36 (KHTML, like Gecko) Chrome/141.0.0.0 Safari/537.36" version="28.2.5">
  <diagram name="Page-1" id="ZjTfnTyGOGo23imlz674">
    <mxGraphModel dx="2710" dy="610" grid="1" gridSize="10" guides="1" tooltips="1" connect="1" arrows="1" fold="1" page="1" pageScale="1" pageWidth="1654" pageHeight="1169" math="0" shadow="0">
      <root>
        <mxCell id="0" />
        <mxCell id="1" parent="0" />
        <mxCell id="b7_BZjNVpzHTF5Yu8K29-1" value="&lt;ol&gt;&lt;li&gt;Default size of HashMap is: 16&lt;/li&gt;&lt;li&gt;The size of HashMap is always in the power of 2, eg. 2&lt;sup&gt;0&lt;/sup&gt;&lt;span style=&quot;background-color: transparent; color: light-dark(rgb(0, 0, 0), rgb(255, 255, 255));&quot;&gt;,&amp;nbsp;&lt;/span&gt;&lt;span style=&quot;background-color: transparent; color: light-dark(rgb(0, 0, 0), rgb(255, 255, 255));&quot;&gt;2&lt;/span&gt;&lt;sup style=&quot;background-color: transparent; color: light-dark(rgb(0, 0, 0), rgb(255, 255, 255));&quot;&gt;1&lt;/sup&gt;&lt;span style=&quot;background-color: transparent; color: light-dark(rgb(0, 0, 0), rgb(255, 255, 255));&quot;&gt;,&amp;nbsp;&lt;/span&gt;&lt;span style=&quot;background-color: transparent; color: light-dark(rgb(0, 0, 0), rgb(255, 255, 255));&quot;&gt;2&lt;/span&gt;&lt;sup style=&quot;background-color: transparent; color: light-dark(rgb(0, 0, 0), rgb(255, 255, 255));&quot;&gt;2&lt;/sup&gt;&lt;/li&gt;&lt;li&gt;&lt;br&gt;&lt;/li&gt;&lt;/ol&gt;" style="text;html=1;align=left;verticalAlign=middle;resizable=0;points=[];autosize=1;strokeColor=none;fillColor=none;" vertex="1" parent="1">
          <mxGeometry x="-400" y="480" width="400" height="80" as="geometry" />
        </mxCell>
        <mxCell id="b7_BZjNVpzHTF5Yu8K29-2" value="" style="endArrow=none;html=1;rounded=0;" edge="1" parent="1">
          <mxGeometry width="50" height="50" relative="1" as="geometry">
            <mxPoint x="40" y="480" as="sourcePoint" />
            <mxPoint x="40" y="200" as="targetPoint" />
          </mxGeometry>
        </mxCell>
        <mxCell id="b7_BZjNVpzHTF5Yu8K29-4" value="" style="endArrow=classic;html=1;rounded=0;exitX=0.986;exitY=0.154;exitDx=0;exitDy=0;exitPerimeter=0;" edge="1" parent="1">
          <mxGeometry width="50" height="50" relative="1" as="geometry">
            <mxPoint x="39.58000000000038" y="230.18000000000006" as="sourcePoint" />
            <mxPoint x="80" y="230" as="targetPoint" />
          </mxGeometry>
        </mxCell>
        <mxCell id="b7_BZjNVpzHTF5Yu8K29-5" value="" style="endArrow=classic;html=1;rounded=0;exitX=0.986;exitY=0.154;exitDx=0;exitDy=0;exitPerimeter=0;" edge="1" parent="1">
          <mxGeometry width="50" height="50" relative="1" as="geometry">
            <mxPoint x="40" y="260" as="sourcePoint" />
            <mxPoint x="80" y="260" as="targetPoint" />
          </mxGeometry>
        </mxCell>
        <mxCell id="b7_BZjNVpzHTF5Yu8K29-6" value="" style="endArrow=classic;html=1;rounded=0;exitX=0.986;exitY=0.154;exitDx=0;exitDy=0;exitPerimeter=0;" edge="1" parent="1">
          <mxGeometry width="50" height="50" relative="1" as="geometry">
            <mxPoint x="40" y="290" as="sourcePoint" />
            <mxPoint x="80" y="290" as="targetPoint" />
          </mxGeometry>
        </mxCell>
        <mxCell id="b7_BZjNVpzHTF5Yu8K29-7" value="" style="endArrow=classic;html=1;rounded=0;exitX=0.986;exitY=0.154;exitDx=0;exitDy=0;exitPerimeter=0;" edge="1" parent="1">
          <mxGeometry width="50" height="50" relative="1" as="geometry">
            <mxPoint x="40" y="320" as="sourcePoint" />
            <mxPoint x="80" y="320" as="targetPoint" />
            <Array as="points">
              <mxPoint x="60" y="320" />
            </Array>
          </mxGeometry>
        </mxCell>
        <mxCell id="b7_BZjNVpzHTF5Yu8K29-8" value="" style="endArrow=classic;html=1;rounded=0;" edge="1" parent="1">
          <mxGeometry width="50" height="50" relative="1" as="geometry">
            <mxPoint x="40" y="350" as="sourcePoint" />
            <mxPoint x="80" y="350" as="targetPoint" />
          </mxGeometry>
        </mxCell>
        <mxCell id="b7_BZjNVpzHTF5Yu8K29-9" value="" style="endArrow=classic;html=1;rounded=0;" edge="1" parent="1">
          <mxGeometry width="50" height="50" relative="1" as="geometry">
            <mxPoint x="40" y="380" as="sourcePoint" />
            <mxPoint x="80" y="380" as="targetPoint" />
          </mxGeometry>
        </mxCell>
        <mxCell id="b7_BZjNVpzHTF5Yu8K29-10" value="" style="endArrow=classic;html=1;rounded=0;" edge="1" parent="1">
          <mxGeometry width="50" height="50" relative="1" as="geometry">
            <mxPoint x="40" y="410" as="sourcePoint" />
            <mxPoint x="80" y="410" as="targetPoint" />
          </mxGeometry>
        </mxCell>
        <mxCell id="b7_BZjNVpzHTF5Yu8K29-12" value="0" style="text;html=1;align=center;verticalAlign=middle;resizable=0;points=[];autosize=1;strokeColor=none;fillColor=none;" vertex="1" parent="1">
          <mxGeometry x="15" y="198" width="30" height="30" as="geometry" />
        </mxCell>
        <mxCell id="b7_BZjNVpzHTF5Yu8K29-13" value="1" style="text;html=1;align=center;verticalAlign=middle;resizable=0;points=[];autosize=1;strokeColor=none;fillColor=none;" vertex="1" parent="1">
          <mxGeometry x="15" y="228" width="30" height="30" as="geometry" />
        </mxCell>
        <mxCell id="b7_BZjNVpzHTF5Yu8K29-14" value="2" style="text;html=1;align=center;verticalAlign=middle;resizable=0;points=[];autosize=1;strokeColor=none;fillColor=none;" vertex="1" parent="1">
          <mxGeometry x="15" y="258" width="30" height="30" as="geometry" />
        </mxCell>
        <mxCell id="b7_BZjNVpzHTF5Yu8K29-15" value="3" style="text;html=1;align=center;verticalAlign=middle;resizable=0;points=[];autosize=1;strokeColor=none;fillColor=none;" vertex="1" parent="1">
          <mxGeometry x="15" y="288" width="30" height="30" as="geometry" />
        </mxCell>
        <mxCell id="b7_BZjNVpzHTF5Yu8K29-16" value="4" style="text;html=1;align=center;verticalAlign=middle;resizable=0;points=[];autosize=1;strokeColor=none;fillColor=none;" vertex="1" parent="1">
          <mxGeometry x="15" y="320" width="30" height="30" as="geometry" />
        </mxCell>
        <mxCell id="b7_BZjNVpzHTF5Yu8K29-17" value="5" style="text;html=1;align=center;verticalAlign=middle;resizable=0;points=[];autosize=1;strokeColor=none;fillColor=none;" vertex="1" parent="1">
          <mxGeometry x="15" y="350" width="30" height="30" as="geometry" />
        </mxCell>
        <mxCell id="b7_BZjNVpzHTF5Yu8K29-18" value="6" style="text;html=1;align=center;verticalAlign=middle;resizable=0;points=[];autosize=1;strokeColor=none;fillColor=none;" vertex="1" parent="1">
          <mxGeometry x="15" y="380" width="30" height="30" as="geometry" />
        </mxCell>
        <mxCell id="b7_BZjNVpzHTF5Yu8K29-19" value=".&lt;div&gt;.&lt;/div&gt;&lt;div&gt;.&lt;/div&gt;&lt;div&gt;.&lt;/div&gt;&lt;div&gt;&lt;br&gt;&lt;/div&gt;" style="text;html=1;align=center;verticalAlign=middle;resizable=0;points=[];autosize=1;strokeColor=none;fillColor=none;" vertex="1" parent="1">
          <mxGeometry x="15" y="400" width="30" height="90" as="geometry" />
        </mxCell>
        <mxCell id="b7_BZjNVpzHTF5Yu8K29-20" value="15" style="text;html=1;align=center;verticalAlign=middle;resizable=0;points=[];autosize=1;strokeColor=none;fillColor=none;" vertex="1" parent="1">
          <mxGeometry x="10" y="460" width="40" height="30" as="geometry" />
        </mxCell>
        <mxCell id="b7_BZjNVpzHTF5Yu8K29-21" value="" style="endArrow=classic;html=1;rounded=0;exitX=0.75;exitY=0.667;exitDx=0;exitDy=0;exitPerimeter=0;" edge="1" parent="1" source="b7_BZjNVpzHTF5Yu8K29-20">
          <mxGeometry width="50" height="50" relative="1" as="geometry">
            <mxPoint x="90" y="480" as="sourcePoint" />
            <mxPoint x="80" y="480" as="targetPoint" />
          </mxGeometry>
        </mxCell>
        <mxCell id="b7_BZjNVpzHTF5Yu8K29-23" value="&lt;div&gt;Step&lt;/div&gt;&lt;ul&gt;&lt;li&gt;&lt;span style=&quot;background-color: transparent; color: light-dark(rgb(0, 0, 0), rgb(255, 255, 255));&quot;&gt;Part 1&lt;/span&gt;&lt;/li&gt;&lt;ul&gt;&lt;li&gt;&lt;span style=&quot;background-color: transparent; color: light-dark(rgb(0, 0, 0), rgb(255, 255, 255));&quot;&gt;map.put(1,&quot;hello&quot;)&lt;/span&gt;&lt;/li&gt;&lt;li&gt;&lt;span style=&quot;background-color: transparent; color: light-dark(rgb(0, 0, 0), rgb(255, 255, 255));&quot;&gt;generate hashcode for 1&lt;/span&gt;&lt;/li&gt;&lt;li&gt;&lt;span style=&quot;background-color: transparent; color: light-dark(rgb(0, 0, 0), rgb(255, 255, 255));&quot;&gt;Lets say hashcode for 1 is hash(1) = 3&lt;/span&gt;&lt;/li&gt;&lt;li&gt;&lt;span style=&quot;background-color: transparent; color: light-dark(rgb(0, 0, 0), rgb(255, 255, 255));&quot;&gt;Add the node to the 3&lt;/span&gt;&lt;sup style=&quot;background-color: transparent; color: light-dark(rgb(0, 0, 0), rgb(255, 255, 255));&quot;&gt;rd&lt;/sup&gt;&lt;span style=&quot;background-color: transparent; color: light-dark(rgb(0, 0, 0), rgb(255, 255, 255));&quot;&gt; index&lt;/span&gt;&lt;/li&gt;&lt;/ul&gt;&lt;li&gt;Part 2&lt;/li&gt;&lt;ul&gt;&lt;li&gt;Again when you do&amp;nbsp;&lt;br&gt;map.put(35, &quot;hey&quot;)&lt;/li&gt;&lt;li&gt;hash(35) = 3&lt;/li&gt;&lt;li&gt;Add the node to the 3&lt;sup&gt;rd&lt;/sup&gt; index&lt;/li&gt;&lt;/ul&gt;&lt;/ul&gt;" style="text;html=1;align=left;verticalAlign=middle;resizable=0;points=[];autosize=1;strokeColor=none;fillColor=none;" vertex="1" parent="1">
          <mxGeometry x="-360" y="180" width="310" height="200" as="geometry" />
        </mxCell>
        <mxCell id="b7_BZjNVpzHTF5Yu8K29-24" value="" style="shape=process;whiteSpace=wrap;html=1;backgroundOutline=1;size=0.3333333333333333;" vertex="1" parent="1">
          <mxGeometry x="80" y="310" width="90" height="18" as="geometry" />
        </mxCell>
        <mxCell id="b7_BZjNVpzHTF5Yu8K29-25" value="&lt;font style=&quot;font-size: 5px;&quot;&gt;Key&lt;/font&gt;" style="text;html=1;align=center;verticalAlign=middle;resizable=0;points=[];autosize=1;strokeColor=none;fillColor=none;" vertex="1" parent="1">
          <mxGeometry x="80" y="290" width="30" height="30" as="geometry" />
        </mxCell>
        <mxCell id="b7_BZjNVpzHTF5Yu8K29-26" value="&lt;font style=&quot;font-size: 5px;&quot;&gt;Value&lt;/font&gt;" style="text;html=1;align=center;verticalAlign=middle;resizable=0;points=[];autosize=1;strokeColor=none;fillColor=none;" vertex="1" parent="1">
          <mxGeometry x="105" y="290" width="40" height="30" as="geometry" />
        </mxCell>
        <mxCell id="b7_BZjNVpzHTF5Yu8K29-28" value="&lt;font style=&quot;font-size: 8px;&quot;&gt;1&lt;/font&gt;" style="text;html=1;align=center;verticalAlign=middle;resizable=0;points=[];autosize=1;strokeColor=none;fillColor=none;strokeWidth=0;" vertex="1" parent="1">
          <mxGeometry x="80" y="302" width="30" height="30" as="geometry" />
        </mxCell>
        <mxCell id="b7_BZjNVpzHTF5Yu8K29-29" value="&lt;span style=&quot;font-size: 8px;&quot;&gt;hello&lt;/span&gt;" style="text;html=1;align=center;verticalAlign=middle;resizable=0;points=[];autosize=1;strokeColor=none;fillColor=none;strokeWidth=0;" vertex="1" parent="1">
          <mxGeometry x="105" y="302" width="40" height="30" as="geometry" />
        </mxCell>
        <mxCell id="b7_BZjNVpzHTF5Yu8K29-30" value="" style="endArrow=classic;html=1;rounded=0;" edge="1" parent="1">
          <mxGeometry width="50" height="50" relative="1" as="geometry">
            <mxPoint x="160" y="320" as="sourcePoint" />
            <mxPoint x="200" y="320" as="targetPoint" />
          </mxGeometry>
        </mxCell>
        <mxCell id="b7_BZjNVpzHTF5Yu8K29-31" value="&lt;font style=&quot;font-size: 8px;&quot;&gt;null&lt;/font&gt;" style="text;html=1;align=center;verticalAlign=middle;resizable=0;points=[];autosize=1;strokeColor=none;fillColor=none;strokeWidth=0;" vertex="1" parent="1">
          <mxGeometry x="132" y="302" width="40" height="30" as="geometry" />
        </mxCell>
        <mxCell id="b7_BZjNVpzHTF5Yu8K29-32" value="" style="endArrow=none;html=1;rounded=0;" edge="1" parent="1">
          <mxGeometry width="50" height="50" relative="1" as="geometry">
            <mxPoint x="285" y="480" as="sourcePoint" />
            <mxPoint x="285" y="200" as="targetPoint" />
          </mxGeometry>
        </mxCell>
        <mxCell id="b7_BZjNVpzHTF5Yu8K29-33" value="" style="endArrow=classic;html=1;rounded=0;exitX=0.986;exitY=0.154;exitDx=0;exitDy=0;exitPerimeter=0;" edge="1" parent="1">
          <mxGeometry width="50" height="50" relative="1" as="geometry">
            <mxPoint x="284.5800000000004" y="230.18000000000006" as="sourcePoint" />
            <mxPoint x="325" y="230" as="targetPoint" />
          </mxGeometry>
        </mxCell>
        <mxCell id="b7_BZjNVpzHTF5Yu8K29-34" value="" style="endArrow=classic;html=1;rounded=0;exitX=0.986;exitY=0.154;exitDx=0;exitDy=0;exitPerimeter=0;" edge="1" parent="1">
          <mxGeometry width="50" height="50" relative="1" as="geometry">
            <mxPoint x="285" y="260" as="sourcePoint" />
            <mxPoint x="325" y="260" as="targetPoint" />
          </mxGeometry>
        </mxCell>
        <mxCell id="b7_BZjNVpzHTF5Yu8K29-35" value="" style="endArrow=classic;html=1;rounded=0;exitX=0.986;exitY=0.154;exitDx=0;exitDy=0;exitPerimeter=0;" edge="1" parent="1">
          <mxGeometry width="50" height="50" relative="1" as="geometry">
            <mxPoint x="285" y="290" as="sourcePoint" />
            <mxPoint x="325" y="290" as="targetPoint" />
          </mxGeometry>
        </mxCell>
        <mxCell id="b7_BZjNVpzHTF5Yu8K29-36" value="" style="endArrow=classic;html=1;rounded=0;exitX=0.986;exitY=0.154;exitDx=0;exitDy=0;exitPerimeter=0;" edge="1" parent="1">
          <mxGeometry width="50" height="50" relative="1" as="geometry">
            <mxPoint x="285" y="320" as="sourcePoint" />
            <mxPoint x="325" y="320" as="targetPoint" />
            <Array as="points">
              <mxPoint x="305" y="320" />
            </Array>
          </mxGeometry>
        </mxCell>
        <mxCell id="b7_BZjNVpzHTF5Yu8K29-37" value="" style="endArrow=classic;html=1;rounded=0;" edge="1" parent="1">
          <mxGeometry width="50" height="50" relative="1" as="geometry">
            <mxPoint x="285" y="350" as="sourcePoint" />
            <mxPoint x="325" y="350" as="targetPoint" />
          </mxGeometry>
        </mxCell>
        <mxCell id="b7_BZjNVpzHTF5Yu8K29-38" value="" style="endArrow=classic;html=1;rounded=0;" edge="1" parent="1">
          <mxGeometry width="50" height="50" relative="1" as="geometry">
            <mxPoint x="285" y="380" as="sourcePoint" />
            <mxPoint x="325" y="380" as="targetPoint" />
          </mxGeometry>
        </mxCell>
        <mxCell id="b7_BZjNVpzHTF5Yu8K29-39" value="" style="endArrow=classic;html=1;rounded=0;" edge="1" parent="1">
          <mxGeometry width="50" height="50" relative="1" as="geometry">
            <mxPoint x="285" y="410" as="sourcePoint" />
            <mxPoint x="325" y="410" as="targetPoint" />
          </mxGeometry>
        </mxCell>
        <mxCell id="b7_BZjNVpzHTF5Yu8K29-40" value="0" style="text;html=1;align=center;verticalAlign=middle;resizable=0;points=[];autosize=1;strokeColor=none;fillColor=none;" vertex="1" parent="1">
          <mxGeometry x="260" y="198" width="30" height="30" as="geometry" />
        </mxCell>
        <mxCell id="b7_BZjNVpzHTF5Yu8K29-41" value="1" style="text;html=1;align=center;verticalAlign=middle;resizable=0;points=[];autosize=1;strokeColor=none;fillColor=none;" vertex="1" parent="1">
          <mxGeometry x="260" y="228" width="30" height="30" as="geometry" />
        </mxCell>
        <mxCell id="b7_BZjNVpzHTF5Yu8K29-42" value="2" style="text;html=1;align=center;verticalAlign=middle;resizable=0;points=[];autosize=1;strokeColor=none;fillColor=none;" vertex="1" parent="1">
          <mxGeometry x="260" y="258" width="30" height="30" as="geometry" />
        </mxCell>
        <mxCell id="b7_BZjNVpzHTF5Yu8K29-43" value="3" style="text;html=1;align=center;verticalAlign=middle;resizable=0;points=[];autosize=1;strokeColor=none;fillColor=none;" vertex="1" parent="1">
          <mxGeometry x="260" y="288" width="30" height="30" as="geometry" />
        </mxCell>
        <mxCell id="b7_BZjNVpzHTF5Yu8K29-44" value="4" style="text;html=1;align=center;verticalAlign=middle;resizable=0;points=[];autosize=1;strokeColor=none;fillColor=none;" vertex="1" parent="1">
          <mxGeometry x="260" y="320" width="30" height="30" as="geometry" />
        </mxCell>
        <mxCell id="b7_BZjNVpzHTF5Yu8K29-45" value="5" style="text;html=1;align=center;verticalAlign=middle;resizable=0;points=[];autosize=1;strokeColor=none;fillColor=none;" vertex="1" parent="1">
          <mxGeometry x="260" y="350" width="30" height="30" as="geometry" />
        </mxCell>
        <mxCell id="b7_BZjNVpzHTF5Yu8K29-46" value="6" style="text;html=1;align=center;verticalAlign=middle;resizable=0;points=[];autosize=1;strokeColor=none;fillColor=none;" vertex="1" parent="1">
          <mxGeometry x="260" y="380" width="30" height="30" as="geometry" />
        </mxCell>
        <mxCell id="b7_BZjNVpzHTF5Yu8K29-47" value="" style="endArrow=classic;html=1;rounded=0;exitX=0.75;exitY=0.667;exitDx=0;exitDy=0;exitPerimeter=0;" edge="1" parent="1">
          <mxGeometry width="50" height="50" relative="1" as="geometry">
            <mxPoint x="285" y="480" as="sourcePoint" />
            <mxPoint x="325" y="480" as="targetPoint" />
          </mxGeometry>
        </mxCell>
        <mxCell id="b7_BZjNVpzHTF5Yu8K29-48" value="" style="shape=process;whiteSpace=wrap;html=1;backgroundOutline=1;size=0.3333333333333333;" vertex="1" parent="1">
          <mxGeometry x="325" y="310" width="90" height="18" as="geometry" />
        </mxCell>
        <mxCell id="b7_BZjNVpzHTF5Yu8K29-49" value="&lt;font style=&quot;font-size: 5px;&quot;&gt;Key&lt;/font&gt;" style="text;html=1;align=center;verticalAlign=middle;resizable=0;points=[];autosize=1;strokeColor=none;fillColor=none;" vertex="1" parent="1">
          <mxGeometry x="325" y="290" width="30" height="30" as="geometry" />
        </mxCell>
        <mxCell id="b7_BZjNVpzHTF5Yu8K29-50" value="&lt;font style=&quot;font-size: 5px;&quot;&gt;Value&lt;/font&gt;" style="text;html=1;align=center;verticalAlign=middle;resizable=0;points=[];autosize=1;strokeColor=none;fillColor=none;" vertex="1" parent="1">
          <mxGeometry x="350" y="290" width="40" height="30" as="geometry" />
        </mxCell>
        <mxCell id="b7_BZjNVpzHTF5Yu8K29-51" value="&lt;font style=&quot;font-size: 8px;&quot;&gt;1&lt;/font&gt;" style="text;html=1;align=center;verticalAlign=middle;resizable=0;points=[];autosize=1;strokeColor=none;fillColor=none;strokeWidth=0;" vertex="1" parent="1">
          <mxGeometry x="325" y="302" width="30" height="30" as="geometry" />
        </mxCell>
        <mxCell id="b7_BZjNVpzHTF5Yu8K29-52" value="&lt;span style=&quot;font-size: 8px;&quot;&gt;hello&lt;/span&gt;" style="text;html=1;align=center;verticalAlign=middle;resizable=0;points=[];autosize=1;strokeColor=none;fillColor=none;strokeWidth=0;" vertex="1" parent="1">
          <mxGeometry x="350" y="302" width="40" height="30" as="geometry" />
        </mxCell>
        <mxCell id="b7_BZjNVpzHTF5Yu8K29-53" value="" style="endArrow=classic;html=1;rounded=0;" edge="1" parent="1">
          <mxGeometry width="50" height="50" relative="1" as="geometry">
            <mxPoint x="405" y="320" as="sourcePoint" />
            <mxPoint x="445" y="320" as="targetPoint" />
          </mxGeometry>
        </mxCell>
        <mxCell id="b7_BZjNVpzHTF5Yu8K29-54" value="&lt;font style=&quot;font-size: 8px;&quot;&gt;null&lt;/font&gt;" style="text;html=1;align=center;verticalAlign=middle;resizable=0;points=[];autosize=1;strokeColor=none;fillColor=none;strokeWidth=0;" vertex="1" parent="1">
          <mxGeometry x="377" y="302" width="40" height="30" as="geometry" />
        </mxCell>
        <mxCell id="b7_BZjNVpzHTF5Yu8K29-56" value="Part 1&amp;nbsp;" style="text;html=1;align=center;verticalAlign=middle;resizable=0;points=[];autosize=1;strokeColor=none;fillColor=none;" vertex="1" parent="1">
          <mxGeometry x="15" y="158" width="60" height="30" as="geometry" />
        </mxCell>
        <mxCell id="b7_BZjNVpzHTF5Yu8K29-57" value="Part 2" style="text;html=1;align=center;verticalAlign=middle;resizable=0;points=[];autosize=1;strokeColor=none;fillColor=none;" vertex="1" parent="1">
          <mxGeometry x="260" y="158" width="60" height="30" as="geometry" />
        </mxCell>
        <mxCell id="b7_BZjNVpzHTF5Yu8K29-63" value="" style="shape=process;whiteSpace=wrap;html=1;backgroundOutline=1;size=0.3333333333333333;" vertex="1" parent="1">
          <mxGeometry x="440" y="310" width="90" height="18" as="geometry" />
        </mxCell>
        <mxCell id="b7_BZjNVpzHTF5Yu8K29-64" value="&lt;font style=&quot;font-size: 5px;&quot;&gt;Key&lt;/font&gt;" style="text;html=1;align=center;verticalAlign=middle;resizable=0;points=[];autosize=1;strokeColor=none;fillColor=none;" vertex="1" parent="1">
          <mxGeometry x="440" y="290" width="30" height="30" as="geometry" />
        </mxCell>
        <mxCell id="b7_BZjNVpzHTF5Yu8K29-65" value="&lt;font style=&quot;font-size: 5px;&quot;&gt;Value&lt;/font&gt;" style="text;html=1;align=center;verticalAlign=middle;resizable=0;points=[];autosize=1;strokeColor=none;fillColor=none;" vertex="1" parent="1">
          <mxGeometry x="465" y="290" width="40" height="30" as="geometry" />
        </mxCell>
        <mxCell id="b7_BZjNVpzHTF5Yu8K29-66" value="&lt;font style=&quot;font-size: 8px;&quot;&gt;35&lt;/font&gt;" style="text;html=1;align=center;verticalAlign=middle;resizable=0;points=[];autosize=1;strokeColor=none;fillColor=none;strokeWidth=0;" vertex="1" parent="1">
          <mxGeometry x="440" y="302" width="30" height="30" as="geometry" />
        </mxCell>
        <mxCell id="b7_BZjNVpzHTF5Yu8K29-67" value="&lt;span style=&quot;font-size: 8px;&quot;&gt;hey&lt;/span&gt;" style="text;html=1;align=center;verticalAlign=middle;resizable=0;points=[];autosize=1;strokeColor=none;fillColor=none;strokeWidth=0;" vertex="1" parent="1">
          <mxGeometry x="465" y="302" width="40" height="30" as="geometry" />
        </mxCell>
        <mxCell id="b7_BZjNVpzHTF5Yu8K29-68" value="&lt;font style=&quot;font-size: 8px;&quot;&gt;null&lt;/font&gt;" style="text;html=1;align=center;verticalAlign=middle;resizable=0;points=[];autosize=1;strokeColor=none;fillColor=none;strokeWidth=0;" vertex="1" parent="1">
          <mxGeometry x="492" y="302" width="40" height="30" as="geometry" />
        </mxCell>
      </root>
    </mxGraphModel>
  </diagram>
</mxfile>
